#!OML:ASF E:\Mandelcareful walks\Project 1\Capture day 1\Session 1\Subject1.ASF
:FULLY-SPECIFIED
:DEGREES
772
root 11.9467 8.15812 1.63436 245.78 -85.4795 -226.164
lowerback 34.5821 0.0629861 -2.55276
upperback 13.6371 -2.39639 -0.40513
thorax -2.47936 -1.88652 1.7137
lowerneck -21.6913 -11.3154 -13.1736
upperneck -0.474501 -13.1454 14.2333
head 5.08726 -5.95948 5.06301
rclavicle -7.15625e-015 3.71727e-014
rhumerus 51.9781 -8.4206 -55.4449
rradius 140.921
rwrist -19.1575
rhand -42.9381 -2.06622
rfingers 7.12502
rthumb -15.7987 -31.4415
lclavicle -7.15625e-015 3.71727e-014
lhumerus 38.4032 8.03651 35.9908
lradius 134.227
lwrist 20.9292
lhand -47.6336 -70.4029
lfingers 7.12502
lthumb -20.3163 -41.4455
rfemur -119.498 -58.8359 19.45
rtibia 125.319
rfoot -20.171 6.71774
rtoes -14.4615
lfemur -124.542 28.2025 -30.5686
ltibia 131.549
lfoot -23.5105 -3.62213
ltoes -9.15241
773
root 11.9336 8.15109 1.62973 243.512 -85.4871 -224.295
lowerback 35.2416 -0.0384305 -2.69617
upperback 13.5015 -2.59721 -0.378282
thorax -2.84008 -1.98717 1.90113
lowerneck -21.9784 -11.7424 -13.6228
upperneck -0.581686 -13.6491 15.0373
head 5.26562 -6.16401 5.29769
rclavicle 4.57205e-014 4.53229e-014
rhumerus 51.4833 -7.4519 -55.8345
rradius 140.855
rwrist -18.9584
rhand -43.45 -3.39727
rfingers 7.12502
rthumb -16.2917 -32.7329
lclavicle 4.57205e-014 4.53229e-014
lhumerus 38.2862 9.02397 35.228
lradius 133.788
lwrist 21.6351
lhand -47.8667 -68.8823
lfingers 7.12502
lthumb -20.5403 -39.9489
rfemur -118.683 -58.8884 18.8839
rtibia 125.375
rfoot -20.3182 6.87932
rtoes -14.345
lfemur -124.245 28.8371 -30.6528
ltibia 131.707
lfoot -23.6987 -4.0414
ltoes -8.78201
774
root 11.9346 8.14677 1.63198 243.167 -85.2615 -223.793
lowerback 34.9823 -0.109934 -2.99273
upperback 13.479 -2.76992 -0.524841
thorax -2.76199 -2.07314 1.95363
lowerneck -22.0468 -12.1416 -13.8319
upperneck -1.09422 -14.1915 15.9786
head 5.29767 -6.40566 5.54397
rclavicle -3.57812e-015 -3.91606e-014
rhumerus 50.8563 -6.763 -56.266
rradius 140.788
rwrist -18.7662
rhand -44.4562 -4.1812
rfingers 7.12502
rthumb -17.2603 -33.4347
lclavicle -3.57812e-015 -3.91606e-014
lhumerus 38.0004 8.75705 34.5971
lradius 133.604
lwrist 21.1692
lhand -47.5021 -69.206
lfingers 7.12502
lthumb -20.19 -40.2352
rfemur -119.184 -58.7442 19.0271
rtibia 125.341
rfoot -20.2031 6.87467
rtoes -14.5889
lfemur -124.348 28.7554 -30.7165
ltibia 131.748
lfoot -23.7836 -3.98101
ltoes -8.49845
775
root 11.9242 8.14328 1.62849 241.446 -85.1072 -222.486
lowerback 35.3445 -0.0498051 -3.0118
upperback 13.6332 -2.76973 -0.733064
thorax -2.72837 -2.08343 1.75018
lowerneck -22.0928 -12.6218 -13.7272
upperneck -1.70273 -14.9121 16.846
head 5.30086 -6.7493 5.68761
rclavicle -5.1684e-015 9.54166e-015
rhumerus 50.26 -6.56492 -56.4503
rradius 140.71
rwrist -18.1082
rhand -45.9535 -5.61429
rfingers 7.12502
rthumb -18.701 -34.7354
lclavicle -5.1684e-015 9.54166e-015
lhumerus 37.7689 6.91508 34.4261
lradius 133.835
lwrist 19.6749
lhand -46.2547 -71.3651
lfingers 7.12502
lthumb -18.9907 -42.2722
rfemur -118.443 -58.7985 18.4278
rtibia 125.397
rfoot -20.4747 7.00447
rtoes -14.8295
lfemur -123.908 29.3188 -30.835
ltibia 131.872
lfoot -24.0574 -4.28986
ltoes -8.3536
776
root 11.9184 8.13953 1.63148 240.127 -85.1904 -221.355
lowerback 35.5111 -0.172834 -2.92226
upperback 13.6385 -2.9067 -0.718033
thorax -2.77691 -2.14995 1.7675
lowerneck -22.6595 -12.978 -13.8751
upperneck -1.36649 -15.347 17.0611
head 5.58286 -6.91795 5.67544
rclavicle 2.74323e-014 4.73108e-014
rhumerus 49.2864 -5.42903 -56.3614
rradius 141.012
rwrist -17.2035
rhand -45.9825 -4.93322
rfingers 7.12502
rthumb -18.7289 -34.0516
lclavicle 2.74323e-014 4.73108e-014
lhumerus 37.9508 7.08542 34.1936
lradius 133.552
lwrist 19.9226
lhand -45.2488 -71.8324
lfingers 7.12502
lthumb -18.023 -42.6474
rfemur -118.084 -58.8959 18.319
rtibia 125.419
rfoot -20.6175 7.10336
rtoes -14.9374
lfemur -123.681 29.4983 -30.6824
ltibia 131.983
lfoot -24.2108 -4.31859
ltoes -8.39264
777
root 11.9138 8.13367 1.63461 239.327 -85.1808 -220.676
lowerback 35.7028 -0.246586 -2.93781
upperback 13.479 -2.99659 -0.708351
thorax -3.01015 -2.18314 1.8261
lowerneck -23.0838 -13.2316 -13.9569
upperneck -0.692599 -15.6694 17.0231
head 5.9043 -7.02799 5.59085
rclavicle -2.8625e-014 7.55382e-015
rhumerus 48.7998 -5.46976 -56.4988
rradius 140.686
rwrist -17.7141
rhand -45.1108 -3.40129
rfingers 7.12502
rthumb -17.8903 -32.5984
lclavicle -2.8625e-014 7.55382e-015
lhumerus 37.8609 6.59832 33.6247
lradius 133.209
lwrist 17.908
lhand -47.0982 -70.9777
lfingers 7.12502
lthumb -19.8016 -41.9664
rfemur -117.933 -58.9596 18.2107
rtibia 125.435
rfoot -20.5878 7.19671
rtoes -15.2752
lfemur -123.503 29.6385 -30.653
ltibia 132.085
lfoot -24.4095 -4.34087
ltoes -8.3575
778
root 11.9113 8.13084 1.6373 239.644 -84.9761 -221.098
lowerback 35.8167 -0.251021 -3.09624
upperback 13.3577 -3.05525 -0.802024
thorax -3.17539 -2.20457 1.83803
lowerneck -22.9874 -13.5303 -14.1221
upperneck -0.606716 -16.0898 17.4394
head 6.04037 -7.20981 5.67074
rclavicle 2.22639e-014 -2.42517e-014
rhumerus 48.0712 -5.58079 -56.6273
rradius 140.412
rwrist -18.0039
rhand -44.7657 -1.87641
rfingers 7.12502
rthumb -17.5582 -31.1036
lclavicle 2.22639e-014 -2.42517e-014
lhumerus 37.6588 5.91201 33.4306
lradius 133.13
lwrist 17.3419
lhand -45.9576 -71.4209
lfingers 7.12502
lthumb -18.7049 -42.3003
rfemur -117.872 -59.0104 17.9453
rtibia 125.421
rfoot -20.4467 7.26518
rtoes -15.6345
lfemur -123.265 29.6655 -30.751
ltibia 132.124
lfoot -24.5579 -4.23592
ltoes -8.36786
779
root 11.9129 8.13315 1.64007 240.55 -84.6577 -222.009
lowerback 35.8219 -0.258566 -3.43978
upperback 13.2172 -3.16779 -0.886424
thorax -3.31238 -2.25614 1.97163
lowerneck -23.4003 -14.0103 -14.3928
upperneck -0.0117878 -16.7096 17.7844
head 6.44369 -7.4455 5.67654
rclavicle -4.69132e-014 -9.14409e-015
rhumerus 47.3476 -5.23922 -56.5238
rradius 140.09
rwrist -17.6418
rhand -44.1557 -0.696987
rfingers 7.12502
rthumb -16.9711 -29.9756
lclavicle -4.69132e-014 -9.14409e-015
lhumerus 37.7663 5.85898 33.2782
lradius 132.793
lwrist 18.0984
lhand -43.9364 -70.2499
lfingers 7.12502
lthumb -16.76 -40.9533
rfemur -118.003 -58.9702 17.7004
rtibia 125.37
rfoot -20.3274 7.31361
rtoes -15.5517
lfemur -123.039 29.5918 -30.8482
ltibia 132.142
lfoot -24.6362 -4.24798
ltoes -7.88352
780
root 11.9108 8.1201 1.63785 238.939 -84.3252 -219.967
lowerback 35.1204 -0.192235 -3.9126
upperback 13.1168 -3.17504 -0.886677
thorax -3.15683 -2.26585 2.20508
lowerneck -25.3051 -14.8103 -14.439
upperneck 2.19203 -17.7225 17.4602
head 7.54757 -7.75865 5.27167
rclavicle 9.54166e-015 2.54444e-014
rhumerus 46.6062 -4.49256 -56.2103
rradius 139.679
rwrist -16.9473
rhand -43.5364 -0.147361
rfingers 7.12502
rthumb -16.3748 -29.4761
lclavicle 9.54166e-015 2.54444e-014
lhumerus 37.4942 5.1372 32.7705
lradius 132.498
lwrist 16.3334
lhand -45.7945 -70.5024
lfingers 7.12502
lthumb -18.548 -41.3667
rfemur -119.242 -58.4896 18.3326
rtibia 125.455
rfoot -20.0852 7.23993
rtoes -15.37
lfemur -123.706 29.9844 -31.1494
ltibia 132.295
lfoot -24.5032 -4.89718
ltoes -6.20464
781
root 11.9043 8.11536 1.64237 238.936 -84.1659 -219.735
lowerback 34.666 -0.253399 -4.169
upperback 13.1299 -3.29556 -0.876718
thorax -2.96373 -2.33386 2.37471
lowerneck -24.9523 -15.2939 -15.0072
upperneck 1.2213 -18.3387 18.6912
head 7.48254 -8.05032 5.64257
rclavicle 7.15625e-015 -3.97569e-015
rhumerus 46.0128 -3.97985 -55.6742
rradius 138.943
rwrist -15.7987
rhand -43.7104 -1.01114
rfingers 7.12502
rthumb -16.5424 -30.326
lclavicle 7.15625e-015 -3.97569e-015
lhumerus 37.4578 4.69988 32.3491
lradius 132.048
lwrist 15.2165
lhand -47.0872 -70.6749
lfingers 7.12502
lthumb -19.7911 -41.6625
rfemur -119.775 -58.407 18.5566
rtibia 125.459
rfoot -19.9559 7.3009
rtoes -15.386
lfemur -123.953 30.0073 -31.3268
ltibia 132.391
lfoot -24.5963 -4.99017
ltoes -5.87234
